<?xml version="1.0" encoding="UTF-8" standalone="no"?>
<!DOCTYPE svg PUBLIC "-//W3C//DTD SVG 1.1//EN"
 "http://www.w3.org/Graphics/SVG/1.1/DTD/svg11.dtd">
<!-- Generated by graphviz version 2.40.1 (20161225.0304)
 -->
<!-- Title: a_graph Pages: 1 -->
<svg width="416pt" height="119pt"
 viewBox="0.00 0.00 415.50 119.00" xmlns="http://www.w3.org/2000/svg" xmlns:xlink="http://www.w3.org/1999/xlink">
<g id="graph0" class="graph" transform="scale(1 1) rotate(0) translate(4 115)">
<title>a_graph</title>
<polygon fill="#ffffff" stroke="transparent" points="-4,4 -4,-115 411.5,-115 411.5,4 -4,4"/>
<!-- T45 -->
<g id="node1" class="node">
<title>T45</title>
<polygon fill="none" stroke="#0058ad" points="21.5,-81.5 21.5,-110.5 407.5,-110.5 407.5,-81.5 21.5,-81.5"/>
<text text-anchor="middle" x="96" y="-92.3" font-family="Times,serif" font-size="14.00" fill="#0058ad">r 9 [1 4 5 6 7 8 9 10 13]</text>
<polyline fill="none" stroke="#0058ad" points="170.5,-81.5 170.5,-110.5 "/>
<text text-anchor="middle" x="192.5" y="-92.3" font-family="Times,serif" font-size="14.00" fill="#0058ad">a 8 3</text>
<polyline fill="none" stroke="#0058ad" points="214.5,-81.5 214.5,-110.5 "/>
<text text-anchor="middle" x="289" y="-92.3" font-family="Times,serif" font-size="14.00" fill="#0058ad">r 9 [1 4 5 6 7 8 9 10 13]</text>
<polyline fill="none" stroke="#0058ad" points="363.5,-81.5 363.5,-110.5 "/>
<text text-anchor="middle" x="385.5" y="-92.3" font-family="Times,serif" font-size="14.00" fill="#0058ad">a 7 2</text>
</g>
<!-- T39 -->
<g id="node2" class="node">
<title>T39</title>
<polygon fill="none" stroke="#0058ad" points="0,-.5 0,-29.5 177,-29.5 177,-.5 0,-.5"/>
<text text-anchor="middle" x="41.5" y="-11.3" font-family="Times,serif" font-size="14.00" fill="#0058ad">r 8 [4 5 7 6]</text>
<polyline fill="none" stroke="#0058ad" points="83,-.5 83,-29.5 "/>
<text text-anchor="middle" x="108" y="-11.3" font-family="Times,serif" font-size="14.00" fill="#0058ad">a 9 14</text>
<polyline fill="none" stroke="#0058ad" points="133,-.5 133,-29.5 "/>
<text text-anchor="middle" x="155" y="-11.3" font-family="Times,serif" font-size="14.00" fill="#0058ad">a 8 9</text>
</g>
<!-- T45&#45;&gt;T39 -->
<g id="edge1" class="edge">
<title>T45:f0&#45;&gt;T39:f1</title>
<path fill="none" stroke="#5b00c0" d="M95.5,-81C95.5,-61.4462 104.5843,-55.2913 107.5651,-40.134"/>
<polygon fill="#5b00c0" stroke="#5b00c0" points="111.0664,-40.2793 108.5,-30 104.096,-39.6362 111.0664,-40.2793"/>
<text text-anchor="middle" x="113" y="-51.8" font-family="Times,serif" font-size="14.00" fill="#5b00c0">rw</text>
</g>
<!-- T39&#45;&gt;T45 -->
<g id="edge2" class="edge">
<title>T39:f2&#45;&gt;T45:f1</title>
<path fill="none" stroke="#c02700" d="M155.5,-30C155.5,-54.0655 182.8254,-53.7519 190.5107,-70.9608"/>
<polygon fill="#c02700" stroke="#c02700" points="187.123,-71.8711 192.5,-81 193.9894,-70.5104 187.123,-71.8711"/>
<text text-anchor="middle" x="194.5" y="-51.8" font-family="Times,serif" font-size="14.00" fill="#c02700">ww</text>
</g>
</g>
</svg>
