<?xml version="1.0" encoding="UTF-8" standalone="no"?>
<!DOCTYPE svg PUBLIC "-//W3C//DTD SVG 1.1//EN"
 "http://www.w3.org/Graphics/SVG/1.1/DTD/svg11.dtd">
<!-- Generated by graphviz version 2.40.1 (20161225.0304)
 -->
<!-- Title: a_graph Pages: 1 -->
<svg width="466pt" height="200pt"
 viewBox="0.00 0.00 465.50 200.00" xmlns="http://www.w3.org/2000/svg" xmlns:xlink="http://www.w3.org/1999/xlink">
<g id="graph0" class="graph" transform="scale(1 1) rotate(0) translate(4 196)">
<title>a_graph</title>
<polygon fill="#ffffff" stroke="transparent" points="-4,4 -4,-196 461.5,-196 461.5,4 -4,4"/>
<!-- T41 -->
<g id="node1" class="node">
<title>T41</title>
<polygon fill="none" stroke="#0058ad" points="214.5,-162.5 214.5,-191.5 457.5,-191.5 457.5,-162.5 214.5,-162.5"/>
<text text-anchor="middle" x="261" y="-173.3" font-family="Times,serif" font-size="14.00" fill="#0058ad">r 8 [4 5 7 6 9]</text>
<polyline fill="none" stroke="#0058ad" points="307.5,-162.5 307.5,-191.5 "/>
<text text-anchor="middle" x="332.5" y="-173.3" font-family="Times,serif" font-size="14.00" fill="#0058ad">a 9 15</text>
<polyline fill="none" stroke="#0058ad" points="357.5,-162.5 357.5,-191.5 "/>
<text text-anchor="middle" x="382.5" y="-173.3" font-family="Times,serif" font-size="14.00" fill="#0058ad">a 9 16</text>
<polyline fill="none" stroke="#0058ad" points="407.5,-162.5 407.5,-191.5 "/>
<text text-anchor="middle" x="432.5" y="-173.3" font-family="Times,serif" font-size="14.00" fill="#0058ad">a 9 17</text>
</g>
<!-- T45 -->
<g id="node2" class="node">
<title>T45</title>
<polygon fill="none" stroke="#0058ad" points="0,-81.5 0,-110.5 386,-110.5 386,-81.5 0,-81.5"/>
<text text-anchor="middle" x="74.5" y="-92.3" font-family="Times,serif" font-size="14.00" fill="#0058ad">r 9 [1 4 5 6 7 8 9 10 13]</text>
<polyline fill="none" stroke="#0058ad" points="149,-81.5 149,-110.5 "/>
<text text-anchor="middle" x="171" y="-92.3" font-family="Times,serif" font-size="14.00" fill="#0058ad">a 8 3</text>
<polyline fill="none" stroke="#0058ad" points="193,-81.5 193,-110.5 "/>
<text text-anchor="middle" x="267.5" y="-92.3" font-family="Times,serif" font-size="14.00" fill="#0058ad">r 9 [1 4 5 6 7 8 9 10 13]</text>
<polyline fill="none" stroke="#0058ad" points="342,-81.5 342,-110.5 "/>
<text text-anchor="middle" x="364" y="-92.3" font-family="Times,serif" font-size="14.00" fill="#0058ad">a 7 2</text>
</g>
<!-- T41&#45;&gt;T45 -->
<g id="edge1" class="edge">
<title>T41:f0&#45;&gt;T45:f1</title>
<path fill="none" stroke="#5b00c0" d="M214,-177C182.4092,-177 172.8183,-151.7669 171.2463,-121.1166"/>
<polygon fill="#5b00c0" stroke="#5b00c0" points="174.7425,-120.9118 171,-111 167.7445,-121.0823 174.7425,-120.9118"/>
<text text-anchor="middle" x="181.5" y="-132.8" font-family="Times,serif" font-size="14.00" fill="#5b00c0">rw</text>
</g>
<!-- T39 -->
<g id="node3" class="node">
<title>T39</title>
<polygon fill="none" stroke="#0058ad" points="15.5,-.5 15.5,-29.5 192.5,-29.5 192.5,-.5 15.5,-.5"/>
<text text-anchor="middle" x="57" y="-11.3" font-family="Times,serif" font-size="14.00" fill="#0058ad">r 8 [4 5 7 6]</text>
<polyline fill="none" stroke="#0058ad" points="98.5,-.5 98.5,-29.5 "/>
<text text-anchor="middle" x="123.5" y="-11.3" font-family="Times,serif" font-size="14.00" fill="#0058ad">a 9 14</text>
<polyline fill="none" stroke="#0058ad" points="148.5,-.5 148.5,-29.5 "/>
<text text-anchor="middle" x="170.5" y="-11.3" font-family="Times,serif" font-size="14.00" fill="#0058ad">a 8 9</text>
</g>
<!-- T45&#45;&gt;T39 -->
<g id="edge2" class="edge">
<title>T45:f0&#45;&gt;T39:f1</title>
<path fill="none" stroke="#5b00c0" d="M74,-81C74,-53.2251 112.2813,-59.3125 121.8516,-40.0031"/>
<polygon fill="#5b00c0" stroke="#5b00c0" points="125.322,-40.512 124,-30 118.4781,-39.0421 125.322,-40.512"/>
<text text-anchor="middle" x="122.5" y="-51.8" font-family="Times,serif" font-size="14.00" fill="#5b00c0">rw</text>
</g>
<!-- T39&#45;&gt;T41 -->
<g id="edge3" class="edge">
<title>T39:f1&#45;&gt;T41:f1</title>
<path fill="none" stroke="#c02700" d="M124,-30C124,-45.3198 385.2201,-69.208 395,-81 403.5117,-91.263 400.7411,-98.966 395,-111 381.185,-139.9579 342.0056,-129.2132 333.6003,-151.9661"/>
<polygon fill="#c02700" stroke="#c02700" points="330.1188,-151.5735 332,-162 337.0314,-152.6761 330.1188,-151.5735"/>
<text text-anchor="middle" x="410" y="-92.3" font-family="Times,serif" font-size="14.00" fill="#c02700">ww</text>
</g>
<!-- T39&#45;&gt;T45 -->
<g id="edge4" class="edge">
<title>T39:f2&#45;&gt;T45:f1</title>
<path fill="none" stroke="#c02700" d="M171,-30C171,-48.7708 171,-55.8832 171,-70.6465"/>
<polygon fill="#c02700" stroke="#c02700" points="167.5001,-71 171,-81 174.5001,-71 167.5001,-71"/>
<text text-anchor="middle" x="181" y="-51.8" font-family="Times,serif" font-size="14.00" fill="#c02700">ww</text>
</g>
</g>
</svg>
